<svg id="Ebene_1" data-name="Ebene 1" xmlns="http://www.w3.org/2000/svg" viewBox="0 0 84.39 84.38"><defs><style>.cls-1{fill:#669965;}.cls-2{fill:#fff;}</style></defs><g id="Layer_1" data-name="Layer 1"><g id="_1421487920208" data-name=" 1421487920208"><path class="cls-1" d="M307,56.38A42.18,42.18,0,1,1,276.2,5.29h.13A42.18,42.18,0,0,1,307,56.35Z" transform="translate(-223.86 -4.04)"/><path class="cls-2" d="M275.62,40.09c-1.32,5.27-9.36,2.57-12,1.92l2.31-9.22c2.57.63,11,1.84,9.62,7.3ZM274.21,55c-1.42,5.74-11.1,2.63-14.23,1.85l2.54-10.19C265.63,47.46,275.67,49,274.21,55Zm10.55-14.83c.83-5.62-3.44-8.64-9.23-10.64l1.9-7.6-4.68-1.16-1.85,7.4c-1.21-.3-2.46-.59-3.7-.87L269,19.82l-4.62-1.16-1.9,7.6-2.95-.66L253.18,24,252,29s3.43.79,3.36.85a2.46,2.46,0,0,1,2.16,2.63l-2.19,8.66a3,3,0,0,1,.48.16l-.49-.13-3,12.14a1.68,1.68,0,0,1-2.11,1.09h0c0,.07-3.38-.83-3.38-.83l-2.29,5.27,6,1.49,3.3.86-1.91,7.69L256.49,70l1.9-7.6c1.25.34,2.47.66,3.68,1L260.21,71l4.62,1.15,1.91-7.67c7.91,1.49,13.83.89,16.33-6.25,2-5.75-.1-9.06-4.25-11.22,3-.7,5.27-2.63,5.91-6.8Z" transform="translate(-223.86 -4.04)"/></g></g></svg>