<?xml version="1.0" encoding="utf-8"?>
<!-- Generator: Adobe Illustrator 26.0.0, SVG Export Plug-In . SVG Version: 6.00 Build 0)  -->
<svg version="1.1" id="Ebene_1" xmlns="http://www.w3.org/2000/svg" xmlns:xlink="http://www.w3.org/1999/xlink" x="0px" y="0px"
	 viewBox="0 0 1045.3 91.2" style="enable-background:new 0 0 1045.3 91.2;" xml:space="preserve">
<style type="text/css">
	.st0{fill:#3A3A3A;}
	.st1{fill:#679E64;stroke:#000000;stroke-miterlimit:10;}
	.st2{fill:#FFFFFF;stroke:#000000;stroke-miterlimit:10;}
</style>
<path class="st0" d="M9.6,36.5c0.9-0.3,1.9-0.6,2.9-0.9s2.2-0.7,3.5-1c1.4-0.3,2.9-0.6,4.3-0.7c1.9-0.2,3.7-0.3,5.6-0.3
	c2.1,0,4.3,0.3,6.3,1c1.7,0.6,3.2,1.6,4.6,2.8c1.9-1.1,3.8-2,5.8-2.7c2.2-0.8,4.5-1.1,6.8-1.1c2.2,0,4.3,0.3,6.4,1
	c1.7,0.6,3.2,1.6,4.4,2.8c1.2,1.3,2,2.8,2.5,4.4c0.5,1.8,0.8,3.8,0.8,5.7c0,1-0.1,2-0.2,3c-0.1,1.1-0.3,2.1-0.6,3.2l-5.4,22.5H45.5
	l5.2-22c0.2-0.7,0.3-1.6,0.5-2.5c0.2-0.9,0.3-1.8,0.3-2.7c0-1.3-0.3-2.7-1-3.8c-0.7-1.1-2-1.6-4-1.6c-1.1,0-2.2,0.2-3.2,0.6
	c-0.9,0.4-1.8,0.8-2.7,1.2c0.1,0.4,0.2,0.8,0.2,1.2v1c0,1-0.1,2-0.2,3c-0.1,1.1-0.3,2.1-0.6,3.2l-5.4,22.5H22.7l5.2-22
	c0.2-0.7,0.3-1.6,0.5-2.5c0.2-0.9,0.3-1.8,0.3-2.7c0-1.3-0.3-2.7-1-3.8c-0.7-1.1-2-1.6-4-1.6c-0.7,0-1.4,0-2.1,0.1
	c-0.6,0.1-1.3,0.2-2.1,0.4l-7.7,32.3H0L9.6,36.5z"/>
<path class="st0" d="M106.1,58.3c-0.7,3-1,6-0.6,9.1c0.3,2.8,0.9,5.5,1.8,8.1L96.8,77c-0.3-0.6-0.6-1.2-0.9-1.8s-0.5-1.2-0.8-2
	c-1.5,1.2-3.2,2.2-4.9,3c-1.9,0.8-3.9,1.2-6,1.2c-2.3,0.1-4.7-0.4-6.8-1.4c-1.8-0.9-3.4-2.1-4.6-3.7c-1.2-1.6-2.1-3.5-2.6-5.5
	c-1.4-5.7-1-11.6,1.1-17c1.2-3.1,3.1-6,5.4-8.4c4.8-5,11.4-7.8,18.3-7.7c0.5,0,1.3,0,2.5,0.1s2.5,0.2,4.1,0.3
	c1.6,0.2,3.2,0.5,4.8,0.9c1.7,0.4,3.3,1,4.8,1.7L106.1,58.3z M97.9,43.7c-0.7-0.1-1.3-0.2-1.9-0.2c-0.7-0.1-1.3-0.1-2-0.1
	c-1.8,0-3.5,0.5-5,1.3c-1.6,0.9-3,2.1-4.1,3.5c-1.2,1.5-2.1,3.2-2.7,5c-0.7,1.9-1,3.9-1,6c-0.1,2.1,0.3,4.1,1.3,6
	c0.8,1.5,2.4,2.2,4.7,2.2c1.1,0,2.3-0.2,3.3-0.7c1.2-0.6,2.2-1.4,3.1-2.4c0.1-1.3,0.3-2.7,0.5-4.2s0.5-2.8,0.8-4L97.9,43.7z"/>
<path class="st0" d="M131.8,49.6c3.2-2.5,6.2-5.1,9-7.8c2.8-2.6,5.2-5.1,7.2-7.3h13.3c-3,3.3-6,6.5-9.2,9.6s-6.9,6.5-11,10
	c1.2,1.5,2.3,3.1,3.4,4.8c1.1,1.8,2.2,3.7,3.2,5.6s2,3.9,2.9,5.9c0.8,1.9,1.5,3.8,2.2,5.7h-13.2c-0.5-1.4-1.1-2.9-1.8-4.5
	c-0.7-1.6-1.5-3.3-2.4-4.9s-1.8-3.2-2.7-4.7c-0.9-1.4-1.8-2.8-2.9-4.1l-4.4,18.2h-11.7l14.3-59.6l12.3-1.9L131.8,49.6z"/>
<path class="st0" d="M159.7,59.9c0-3.4,0.6-6.7,1.8-9.8c1.1-3.1,2.8-6,5-8.4c2.2-2.5,4.9-4.5,7.9-5.9c3.2-1.5,6.7-2.3,10.3-2.3
	c1.7,0,3.5,0.3,5.1,0.8c1.5,0.5,2.9,1.3,4.2,2.3c1.2,1,2.1,2.3,2.8,3.7c0.7,1.6,1,3.3,1,5c0.1,2.7-0.6,5.3-2,7.5
	c-1.4,2.1-3.3,3.8-5.5,5c-2.6,1.4-5.4,2.3-8.4,2.8c-3.5,0.6-7,0.9-10.5,0.9c0.2,1.8,1,3.5,2.4,4.7c1.2,0.9,3.2,1.4,5.9,1.4
	c1.7,0,3.4-0.2,5.1-0.4c1.7-0.3,3.3-0.7,4.9-1.3l0.9,9.3c-1.8,0.7-3.7,1.2-5.7,1.6c-2.5,0.5-5,0.7-7.5,0.7c-2.8,0.1-5.6-0.4-8.3-1.4
	c-4.1-1.6-7.3-5-8.5-9.3C160,64.5,159.7,62.2,159.7,59.9z M182.8,42.8c-2.7,0-5.2,1-7.1,2.9c-2.1,2.1-3.5,4.7-4,7.7
	c2.7,0,5.3-0.3,7.9-0.8c1.6-0.3,3.2-0.9,4.7-1.6c0.9-0.5,1.7-1.2,2.2-2.1c0.4-0.7,0.6-1.4,0.6-2.2C187,44.1,185.6,42.8,182.8,42.8z"
	/>
<path class="st0" d="M665.4,36.5c0.9-0.3,1.9-0.6,3-0.9s2.3-0.7,3.6-1c1.5-0.3,3-0.6,4.5-0.7c1.9-0.2,3.8-0.3,5.7-0.3
	c6.2,0,10.5,1.8,12.8,5.4c2.3,3.6,2.7,8.5,1.2,14.8l-5.4,22.5H679l5.2-22c0.3-1.4,0.6-2.7,0.8-4c0.2-1.1,0.2-2.3,0-3.4
	c-0.2-0.9-0.7-1.8-1.5-2.4c-1-0.7-2.3-1-3.5-0.9c-1.6,0-3.1,0.2-4.7,0.5l-7.7,32.3h-11.8L665.4,36.5z"/>
<path class="st0" d="M739.8,58.3c-0.7,3-1,6-0.6,9.1c0.3,2.8,0.9,5.5,1.8,8.1L730.4,77c-0.3-0.6-0.6-1.2-0.9-1.8s-0.5-1.2-0.8-2
	c-1.5,1.2-3.2,2.2-4.9,3c-1.9,0.8-3.9,1.2-6,1.2c-2.3,0.1-4.7-0.4-6.8-1.4c-1.8-0.9-3.4-2.1-4.6-3.7c-1.2-1.6-2.1-3.5-2.6-5.5
	c-1.4-5.7-1-11.6,1.2-17c1.2-3.1,3.1-6,5.4-8.4c4.8-5,11.4-7.8,18.3-7.7c0.5,0,1.3,0,2.5,0.1s2.5,0.2,4.1,0.3
	c1.6,0.2,3.2,0.5,4.8,0.9c1.7,0.4,3.3,1,4.8,1.7L739.8,58.3z M731.6,43.7c-0.7-0.1-1.3-0.2-1.9-0.2c-0.7-0.1-1.3-0.1-2-0.1
	c-1.8,0-3.5,0.5-5,1.3c-1.6,0.9-3,2.1-4.1,3.5c-1.2,1.5-2.1,3.2-2.7,5c-0.7,1.9-1,3.9-1,6c-0.1,2.1,0.3,4.1,1.3,6
	c0.8,1.5,2.4,2.2,4.7,2.2c1.1,0,2.3-0.2,3.3-0.7c1.2-0.6,2.2-1.4,3.1-2.3c0.1-1.3,0.3-2.7,0.5-4.2s0.5-2.8,0.8-4L731.6,43.7z"/>
<path class="st0" d="M749.7,59.6c0-3.5,0.6-6.9,1.7-10.1c1.1-3.1,2.8-5.9,5-8.3c2.2-2.4,4.9-4.3,7.9-5.6c3.3-1.4,6.8-2.1,10.3-2.1
	c2.1,0,4.3,0.2,6.4,0.7c1.8,0.4,3.5,1,5.1,1.8l-4,9.2c-1.1-0.4-2.2-0.8-3.3-1.2c-1.4-0.4-2.8-0.5-4.2-0.5c-3.6-0.2-7,1.3-9.3,4
	c-2.3,2.7-3.4,6.3-3.4,10.9c-0.1,2.3,0.5,4.6,1.8,6.5c1.2,1.7,3.3,2.5,6.4,2.5c1.5,0,3-0.2,4.4-0.5c1.3-0.3,2.6-0.7,3.8-1.2l0.9,9.4
	c-1.6,0.6-3.2,1.1-4.9,1.5c-2.1,0.5-4.3,0.7-6.5,0.7c-2.8,0.1-5.7-0.4-8.3-1.4c-2.1-0.9-4.1-2.2-5.6-3.8c-1.5-1.6-2.6-3.6-3.2-5.7
	C750.1,64.2,749.7,61.9,749.7,59.6z"/>
<path class="st0" d="M813.5,33.9c2,0,4,0.3,5.9,1c1.5,0.6,2.9,1.5,4,2.8c1.1,1.2,1.9,2.7,2.4,4.2c0.5,1.7,0.8,3.5,0.8,5.3
	c0,2.2-0.3,4.4-0.8,6.6l-5.4,22.5h-11.8l5.2-22c0.2-0.9,0.4-1.8,0.6-2.8c0.2-0.9,0.3-1.9,0.3-2.8c0-1.3-0.3-2.5-1.1-3.5
	c-0.7-1-2.1-1.5-4.1-1.5c-0.8,0-1.6,0.1-2.4,0.2c-0.8,0.1-1.5,0.2-2.3,0.4l-7.6,32.1h-11.8l14.3-59.6l12.3-1.9l-4.8,19.9
	c1-0.2,2.1-0.4,3.2-0.6C811.4,34,812.4,33.9,813.5,33.9z"/>
<path class="st0" d="M858.3,33.9c2,0,4,0.3,5.9,1c1.5,0.6,2.9,1.6,4,2.8c1.1,1.2,1.9,2.7,2.4,4.2c0.5,1.7,0.8,3.5,0.8,5.3
	c0,2.2-0.3,4.4-0.8,6.6l-5.3,22.5h-11.8l5.2-22c0.2-0.9,0.4-1.8,0.6-2.8c0.2-0.9,0.3-1.9,0.3-2.8c0-1.3-0.3-2.5-1.1-3.5
	c-0.7-1-2.1-1.5-4.1-1.5c-0.8,0-1.6,0.1-2.4,0.2c-0.8,0.1-1.5,0.2-2.3,0.4L842,76.3h-11.8l14.3-59.6l12.3-1.9l-4.8,19.9
	c1.1-0.2,2.1-0.4,3.2-0.6C856.1,34,857.2,33.9,858.3,33.9z"/>
<path class="st0" d="M914,58.3c-0.7,3-1,6-0.6,9.1c0.3,2.8,0.9,5.5,1.8,8.1L904.6,77c-0.3-0.6-0.6-1.2-0.9-1.8s-0.5-1.2-0.8-2
	c-1.5,1.2-3.1,2.2-4.9,3c-1.9,0.8-3.9,1.2-6,1.2c-2.3,0.1-4.6-0.4-6.8-1.4c-1.8-0.9-3.4-2.1-4.6-3.7c-1.2-1.6-2.1-3.5-2.6-5.5
	c-1.4-5.7-1-11.6,1.2-17c1.2-3.1,3.1-6,5.4-8.4c4.8-5,11.4-7.8,18.3-7.7c0.5,0,1.3,0,2.5,0.1s2.5,0.2,4.1,0.3
	c1.6,0.2,3.2,0.5,4.8,0.9c1.7,0.4,3.3,1,4.8,1.7L914,58.3z M905.7,43.7c-0.7-0.1-1.3-0.2-1.9-0.2c-0.7-0.1-1.3-0.1-2-0.1
	c-1.8,0-3.5,0.5-5,1.3c-1.6,0.9-3,2.1-4.1,3.5c-1.2,1.5-2.1,3.2-2.7,5c-0.7,1.9-1,3.9-1,6c-0.1,2.1,0.3,4.1,1.3,6
	c0.8,1.5,2.4,2.2,4.7,2.2c1.1,0,2.3-0.2,3.3-0.7c1.2-0.6,2.2-1.4,3.1-2.4c0.1-1.3,0.3-2.7,0.5-4.2s0.5-2.8,0.8-4L905.7,43.7z"/>
<path class="st0" d="M938.8,77.1c-3,0.1-6-0.4-8.8-1.5c-1.9-0.8-3.5-2.2-4.6-4c-1-1.8-1.4-3.8-1.3-5.8c0.1-2.4,0.4-4.7,0.9-7
	L935,16.7l12.3-1.9l-11,45.6c-0.2,0.9-0.3,1.7-0.3,2.6c0,0.7,0.1,1.4,0.4,2.1c0.4,0.7,0.9,1.2,1.6,1.5c1,0.4,2.1,0.7,3.2,0.7
	L938.8,77.1z"/>
<path class="st0" d="M957.1,24.2l12.3-1.9l-3,12.3h13.2l-2.4,9.7h-13.1l-3.5,14.6c-0.3,1.1-0.5,2.3-0.6,3.4c-0.1,0.9,0,1.9,0.4,2.7
	c0.4,0.8,1,1.4,1.8,1.8c1.1,0.5,2.3,0.7,3.5,0.6c1.2,0,2.5-0.1,3.7-0.4c1.2-0.2,2.4-0.6,3.6-1l0.9,9c-1.7,0.6-3.4,1.1-5.2,1.5
	c-2.2,0.5-4.4,0.7-6.6,0.6c-3.7,0-6.5-0.5-8.5-1.6c-1.9-1-3.4-2.5-4.3-4.4c-0.9-2-1.3-4.2-1.1-6.5c0.1-2.6,0.5-5.2,1.1-7.7
	L957.1,24.2z"/>
<path class="st0" d="M990.5,76.3h-11.7l9.9-41.7h11.8L990.5,76.3z M996.2,29.5c-1.6,0-3.2-0.5-4.4-1.5c-1.4-1.1-2.1-2.7-2-4.5
	c0-1.1,0.2-2.1,0.7-3.1c0.4-0.9,1-1.8,1.8-2.5c0.7-0.7,1.6-1.3,2.6-1.7c1-0.4,2.1-0.6,3.1-0.6c1.6,0,3.2,0.5,4.4,1.5
	c1.4,1.1,2.1,2.7,2,4.5c0,1.1-0.2,2.1-0.7,3.1c-0.4,1-1,1.8-1.8,2.5c-0.7,0.7-1.6,1.3-2.6,1.7C998.3,29.3,997.3,29.5,996.2,29.5
	L996.2,29.5z"/>
<path class="st0" d="M1037.1,71.1c-0.7,3.1-1.7,6.1-3.1,8.9c-1.2,2.4-2.8,4.5-4.8,6.3c-2,1.7-4.4,3-6.9,3.7
	c-3.1,0.9-6.2,1.3-9.4,1.2c-2.8,0.1-5.7-0.3-8.4-0.9c-2.1-0.6-4.2-1.3-6.2-2.2l4-9.4c1.7,0.7,3.4,1.4,5.1,1.9
	c2.1,0.6,4.3,0.8,6.5,0.8c3.4,0,5.9-0.8,7.7-2.3c1.7-1.5,2.9-3.6,3.4-5.8l0.3-1.5c-1.1,0.5-2.2,1-3.4,1.3c-1.2,0.3-2.5,0.5-3.8,0.5
	c-2.2,0.1-4.4-0.3-6.4-1.2c-1.7-0.7-3.2-1.8-4.4-3.2c-1.2-1.4-2-3.1-2.5-4.9c-0.6-2-0.9-4.1-0.8-6.1c-0.1-3.7,0.7-7.3,2.2-10.7
	c1.4-3,3.4-5.6,5.9-7.7c2.5-2.1,5.4-3.7,8.5-4.7c3.2-1.1,6.6-1.6,10-1.6c2.5,0,5.1,0.3,7.5,0.8c2.5,0.5,5,1.4,7.3,2.5L1037.1,71.1z
	 M1031.9,43.7c-1.1-0.2-2.2-0.3-3.3-0.3c-1.9,0-3.7,0.3-5.4,1.1c-1.5,0.7-2.9,1.7-4.1,2.9c-1.2,1.3-2.1,2.8-2.6,4.4
	c-0.6,1.8-0.9,3.6-0.9,5.5c0,0.9,0.1,1.8,0.2,2.7c0.1,0.8,0.4,1.5,0.9,2.1c0.4,0.6,1.1,1.1,1.8,1.5c0.9,0.4,1.8,0.6,2.8,0.5
	c1,0,2-0.2,3-0.4c1.3-0.3,2.4-0.9,3.4-1.8L1031.9,43.7z"/>
<g id="Layer_1">
	<g id="_1421487920208">
		<path class="st1" d="M307,52.4c-5.6,22.6-28.5,36.4-51.1,30.8c-22.6-5.6-36.4-28.5-30.8-51.1c5.6-22.6,28.5-36.4,51.1-30.8
			c0,0,0,0,0,0h0.1C298.9,7,312.6,29.8,307,52.4L307,52.4z"/>
		<path class="st2" d="M275.6,36.1c-1.3,5.3-9.4,2.6-12,1.9l2.3-9.2C268.5,29.4,276.9,30.6,275.6,36.1L275.6,36.1z M274.2,51
			c-1.4,5.7-11.1,2.6-14.2,1.8l2.5-10.2C265.6,43.5,275.7,45,274.2,51z M284.8,36.2c0.8-5.6-3.4-8.6-9.2-10.6l1.9-7.6l-4.7-1.2
			l-1.9,7.4c-1.2-0.3-2.5-0.6-3.7-0.9l1.8-7.5l-4.6-1.2l-1.9,7.6l-3-0.7l-6.4-1.6l-1.2,4.9c0,0,3.4,0.8,3.4,0.9
			c1.3,0.2,2.3,1.3,2.2,2.6l-2.2,8.7c0.2,0,0.3,0.1,0.5,0.2l-0.5-0.1l-3,12.1c-0.3,0.9-1.2,1.4-2.1,1.1c0,0,0,0,0,0l0,0
			c0,0.1-3.4-0.8-3.4-0.8l-2.3,5.3l6,1.5l3.3,0.9l-1.9,7.7l4.6,1.2l1.9-7.6c1.2,0.3,2.5,0.7,3.7,1l-1.9,7.6l4.6,1.2l1.9-7.7
			c7.9,1.5,13.8,0.9,16.3-6.2c2-5.8-0.1-9.1-4.2-11.2C281.8,42.3,284.1,40.3,284.8,36.2L284.8,36.2z"/>
		<path class="st1" d="M333.7,71.2c2.5,0,4.9-0.6,7-1.8c2.2-1.2,4.2-2.8,5.7-4.8c1.6-2.1,2.9-4.4,3.8-6.9c0.9-2.6,1.4-5.3,1.4-8
			c0.1-2.8-0.4-5.5-1.7-8c-1.1-1.9-3.2-2.9-6.3-2.9c-1.3,0-2.7,0.2-4,0.5c-1.6,0.4-3.1,1.1-4.3,2.2l-7,29.2l1.1,0.2
			c0.3,0.1,0.7,0.1,1,0.2c0.4,0,0.9,0.1,1.3,0.1L333.7,71.2L333.7,71.2z M347.6,25.5c3-0.1,6.1,0.6,8.9,1.8c2.4,1.1,4.5,2.8,6.2,4.9
			c1.7,2.2,3,4.6,3.7,7.3c0.8,2.9,1.2,6,1.2,9c0,9.4-3.7,18.5-10.2,25.3c-3.2,3.2-6.9,5.8-11.1,7.7c-4.4,1.9-9.1,2.9-13.9,2.9H329
			c-1.8-0.1-3.7-0.2-5.5-0.5c-2.2-0.3-4.4-0.8-6.6-1.3c-2.3-0.5-4.5-1.3-6.6-2.3l18.5-77.6L345.4,0l-6.6,27.5
			c1.4-0.6,2.8-1.1,4.3-1.5C344.5,25.7,346.1,25.5,347.6,25.5L347.6,25.5L347.6,25.5z"/>
		<path class="st1" d="M392.2,19.9c-2.2,0-4.3-0.7-6-2c-1.8-1.4-2.8-3.7-2.6-6c0-1.5,0.3-2.9,0.9-4.2c0.6-1.3,1.4-2.4,2.4-3.4
			c1-1,2.2-1.7,3.5-2.3c1.3-0.6,2.8-0.9,4.2-0.9c2.1,0,4.2,0.7,5.9,2c1.8,1.4,2.8,3.7,2.6,6c0,1.5-0.3,2.9-0.9,4.2
			c-0.6,1.3-1.4,2.4-2.4,3.4c-1,1-2.2,1.8-3.5,2.3C395.1,19.6,393.6,19.9,392.2,19.9L392.2,19.9z M384.5,82.9h-15.8l13.4-56.1H398
			L384.5,82.9L384.5,82.9z"/>
		<path class="st1" d="M411.9,12.7l16.5-2.6l-4.1,16.5H442l-3.2,13h-17.6l-4.7,19.6c-0.4,1.5-0.7,3-0.8,4.6
			c-0.1,1.3,0.1,2.5,0.5,3.7c0.4,1.1,1.3,1.9,2.3,2.4c1.5,0.7,3.1,0.9,4.8,0.9c1.7,0,3.4-0.2,5-0.5c1.6-0.3,3.3-0.7,4.9-1.2
			l1.2,12.2c-2.3,0.8-4.6,1.5-7,2c-2.9,0.6-5.9,0.9-8.9,0.8c-4.9,0-8.7-0.7-11.4-2.2c-2.5-1.3-4.6-3.4-5.8-6
			c-1.2-2.7-1.7-5.7-1.5-8.7c0.2-3.5,0.7-7,1.5-10.4L411.9,12.7L411.9,12.7L411.9,12.7z"/>
		<path class="st1" d="M441.4,60.4c0-4.7,0.8-9.3,2.3-13.7c1.5-4.1,3.8-7.9,6.7-11.2c3-3.2,6.6-5.8,10.6-7.6
			c4.4-1.9,9.1-2.8,13.9-2.8c2.9,0,5.8,0.3,8.6,0.9c2.4,0.6,4.7,1.4,6.9,2.4L485,40.9c-1.4-0.6-2.9-1.1-4.4-1.5
			c-1.8-0.5-3.7-0.7-5.6-0.7c-4.8-0.2-9.4,1.8-12.5,5.5c-3.1,3.6-4.6,8.5-4.6,14.6c-0.1,3.1,0.7,6.2,2.3,8.8
			c1.6,2.2,4.4,3.4,8.6,3.4c2,0,4-0.2,6-0.7c1.8-0.4,3.5-0.9,5.1-1.6l1.2,12.7c-2.2,0.8-4.4,1.5-6.6,2.1c-2.8,0.6-5.7,0.9-8.7,0.9
			c-3.9,0.1-7.7-0.5-11.3-1.9c-2.9-1.2-5.4-2.9-7.6-5.2c-2-2.2-3.5-4.8-4.3-7.6C441.8,66.6,441.4,63.5,441.4,60.4L441.4,60.4
			L441.4,60.4z"/>
		<path class="st1" d="M519.5,38.7c-2.2,0-4.4,0.7-6.2,2c-1.8,1.4-3.3,3.1-4.5,5.1c-1.3,2.1-2.2,4.4-2.8,6.8c-0.6,2.3-0.9,4.6-0.9,7
			c-0.1,2.9,0.4,5.7,1.7,8.3c1.2,2,3.2,3,6.2,3c2.2,0,4.4-0.7,6.2-2c1.8-1.4,3.3-3.1,4.5-5.1c1.2-2.1,2.2-4.4,2.7-6.8
			c0.6-2.3,0.9-4.6,0.9-7c0.1-2.9-0.4-5.7-1.7-8.3C524.5,39.7,522.4,38.7,519.5,38.7L519.5,38.7z M511.6,84.3
			c-3.4,0.1-6.7-0.5-9.8-1.7c-2.6-1-5-2.7-6.9-4.8c-1.9-2.1-3.2-4.6-4.1-7.3c-0.9-3-1.4-6.2-1.3-9.3c0-4.4,0.7-8.7,2.1-12.8
			c1.3-4.2,3.4-8,6.1-11.5c2.7-3.4,6.1-6.3,9.9-8.4c4.1-2.2,8.8-3.3,13.5-3.2c3.3-0.1,6.7,0.5,9.8,1.7c2.6,1,5,2.6,6.9,4.7
			c1.8,2.1,3.2,4.6,4.1,7.3c0.9,3,1.4,6.2,1.3,9.3c0,4.3-0.7,8.7-2,12.8c-1.3,4.2-3.3,8.1-6,11.5c-2.7,3.4-6,6.3-9.9,8.4
			C521,83.3,516.3,84.4,511.6,84.3L511.6,84.3z"/>
		<path class="st1" d="M568,19.9c-2.2,0-4.3-0.7-6-2c-1.8-1.4-2.8-3.7-2.6-6c0-1.5,0.3-2.9,0.9-4.2c0.6-1.3,1.4-2.4,2.3-3.4
			c1-1,2.2-1.7,3.5-2.3c1.3-0.6,2.8-0.9,4.2-0.9c2.2,0,4.3,0.7,6,2c1.8,1.4,2.8,3.7,2.6,6c0,1.5-0.3,2.9-0.9,4.2
			c-0.6,1.3-1.4,2.4-2.4,3.4c-1,1-2.2,1.8-3.5,2.3C570.9,19.6,569.5,19.9,568,19.9L568,19.9z M560.4,82.9h-15.8l13.3-56.1h15.9
			L560.4,82.9L560.4,82.9z"/>
		<path class="st1" d="M585.2,29.3c1.2-0.3,2.5-0.8,4-1.2s3.1-0.9,4.9-1.3c2-0.4,4-0.8,6.1-1c2.5-0.3,5.1-0.4,7.6-0.4
			c8.3,0,14.1,2.4,17.2,7.3c2,3.2,3,6.9,2.9,10.6v0.3c-0.1,3-0.5,6-1.2,9l-7.3,30.3h-15.9l7.1-29.7c0.4-1.8,0.8-3.6,1-5.4
			c0.3-1.5,0.3-3.1,0-4.6c-0.3-1.3-1-2.4-2-3.2c-1.4-0.9-3.1-1.4-4.8-1.2c-2.1,0-4.2,0.2-6.3,0.7l-10.4,43.5h-16L585.2,29.3z"/>
	</g>
</g>
</svg>
